   <svg width="57" height="50" viewBox="0 0 57 50" xmlns="http://www.w3.org/2000/svg" className="size-8">
      <path d="M26.5349 8.80386V28.3333H8.8259C3.94933 28.3107 0 24.3764 0 19.5408V0H17.7033C22.557 0.0340136 26.5349 3.97392 26.5349 8.80386Z" fill="currentColor"/>
      <path d="M26.5349 44.2404V31.5137H14.9216C11.7507 31.5137 9.16357 34.1044 9.16357 37.245V50.0001H20.7769C23.9478 49.9717 26.5349 47.4094 26.5349 44.2404Z" fill="currentColor"/>
      <path d="M29.7458 8.80386V28.3333H47.4549C52.3314 28.3107 56.2808 24.3708 56.2808 19.5408V0H38.5717C33.7238 0.0283447 29.7458 3.96825 29.7458 8.79819V8.80386Z" fill="currentColor"/>
      <path d="M29.7458 44.2404C29.7458 47.4094 32.3387 49.9717 35.5096 50.0001H47.1229V37.245C47.1229 34.1044 44.5358 31.5137 41.3649 31.5137H29.7458V44.2404Z" fill="currentColor"/>
    </svg>