 <svg width="46" height="40" viewBox="0 0 46 40" fill="black"   xmlns="http://www.w3.org/2000/svg">
 
<path d="M21.4002 7.04308V22.6667H7.11801C3.1851 22.6485 0 19.5011 0 15.6327V0H14.2776C18.192 0.0272109 21.4002 3.17914 21.4002 7.04308Z" />
<path d="M21.4002 35.3923V25.2109H12.0342C9.47685 25.2109 7.39038 27.2835 7.39038 29.796V40H16.7564C19.3137 39.9774 21.4002 37.9275 21.4002 35.3923Z" />
<path d="M23.9899 22.6667H38.2721C42.205 22.6485 45.3901 19.4966 45.3901 15.6327V0H31.1079C27.1981 0.0226757 23.9899 3.1746 23.9899 7.03855V22.6667Z" />
<path d="M23.9899 35.3923C23.9899 37.9275 26.081 39.9774 28.6383 40H38.0043V29.796C38.0043 27.2835 35.9179 25.2109 33.3605 25.2109H23.9899V35.3923Z" />
  <style>
    path {
      fill: black;
    }
    @media (prefers-color-scheme: dark) {
      path {
        fill: white;
      }
    }
  </style>

</svg>