<svg width="357" height="47" viewBox="0 0 357 47" fill="none" xmlns="http://www.w3.org/2000/svg">
<path d="M0.696 2.496H13.32C15.528 2.496 17.544 2.848 19.368 3.552C21.192 4.256 22.744 5.312 24.024 6.72C25.304 8.096 26.296 9.84 27 11.952C27.704 14.032 28.056 16.464 28.056 19.248C28.056 22.032 27.704 24.48 27 26.592C26.296 28.672 25.304 30.416 24.024 31.824C22.744 33.2 21.192 34.24 19.368 34.944C17.544 35.648 15.528 36 13.32 36H0.696V2.496ZM13.32 29.52C15.496 29.52 17.208 28.912 18.456 27.696C19.704 26.48 20.328 24.528 20.328 21.84V16.656C20.328 13.968 19.704 12.016 18.456 10.8C17.208 9.584 15.496 8.976 13.32 8.976H7.992V29.52H13.32ZM44.2928 36.576C42.3728 36.576 40.6608 36.272 39.1568 35.664C37.6528 35.024 36.3728 34.144 35.3168 33.024C34.2928 31.872 33.5088 30.48 32.9648 28.848C32.4528 27.216 32.1968 25.392 32.1968 23.376C32.1968 21.392 32.4528 19.6 32.9648 18C33.4768 16.368 34.2288 14.976 35.2208 13.824C36.2448 12.672 37.4928 11.792 38.9648 11.184C40.4368 10.544 42.1168 10.224 44.0048 10.224C46.0848 10.224 47.8608 10.576 49.3328 11.28C50.8368 11.984 52.0528 12.928 52.9808 14.112C53.9408 15.296 54.6288 16.672 55.0448 18.24C55.4928 19.776 55.7168 21.392 55.7168 23.088V25.2H39.5408V25.584C39.5408 27.248 39.9888 28.576 40.8848 29.568C41.7808 30.528 43.1888 31.008 45.1088 31.008C46.5808 31.008 47.7808 30.72 48.7088 30.144C49.6368 29.536 50.5008 28.816 51.3008 27.984L54.8528 32.4C53.7328 33.712 52.2608 34.736 50.4368 35.472C48.6448 36.208 46.5968 36.576 44.2928 36.576ZM44.1488 15.456C42.7088 15.456 41.5728 15.936 40.7408 16.896C39.9408 17.824 39.5408 19.072 39.5408 20.64V21.024H48.3728V20.592C48.3728 19.056 48.0208 17.824 47.3168 16.896C46.6448 15.936 45.5888 15.456 44.1488 15.456ZM71.4971 36.576C68.5531 36.576 66.0571 36.08 64.0091 35.088C61.9611 34.064 60.2171 32.752 58.7771 31.152L63.5771 26.304C65.8491 28.864 68.6491 30.144 71.9771 30.144C73.7691 30.144 75.0971 29.776 75.9611 29.04C76.8251 28.304 77.2571 27.328 77.2571 26.112C77.2571 25.184 77.0011 24.416 76.4891 23.808C75.9771 23.168 74.9371 22.736 73.3691 22.512L70.0571 22.08C66.5051 21.632 63.8971 20.56 62.2331 18.864C60.6011 17.168 59.7851 14.912 59.7851 12.096C59.7851 10.592 60.0731 9.216 60.6491 7.968C61.2251 6.72 62.0411 5.648 63.0971 4.752C64.1851 3.856 65.4971 3.168 67.0331 2.688C68.6011 2.176 70.3771 1.92 72.3611 1.92C74.8891 1.92 77.1131 2.32 79.0331 3.12C80.9531 3.92 82.6011 5.088 83.9771 6.624L79.1291 11.52C78.3291 10.592 77.3531 9.84 76.2011 9.264C75.0811 8.656 73.6571 8.352 71.9291 8.352C70.2971 8.352 69.0811 8.64 68.2811 9.216C67.4811 9.792 67.0811 10.592 67.0811 11.616C67.0811 12.768 67.3851 13.6 67.9931 14.112C68.6331 14.624 69.6571 14.992 71.0651 15.216L74.3771 15.744C77.8331 16.288 80.3931 17.36 82.0571 18.96C83.7211 20.528 84.5531 22.768 84.5531 25.68C84.5531 27.28 84.2651 28.752 83.6891 30.096C83.1131 31.44 82.2651 32.592 81.1451 33.552C80.0571 34.512 78.6971 35.264 77.0651 35.808C75.4331 36.32 73.5771 36.576 71.4971 36.576ZM100.394 36.576C98.5063 36.576 96.8263 36.272 95.3543 35.664C93.8823 35.024 92.6503 34.144 91.6583 33.024C90.6663 31.872 89.9143 30.48 89.4023 28.848C88.8903 27.216 88.6343 25.392 88.6343 23.376C88.6343 21.36 88.8903 19.552 89.4023 17.952C89.9143 16.32 90.6663 14.928 91.6583 13.776C92.6503 12.624 93.8823 11.744 95.3543 11.136C96.8263 10.528 98.5063 10.224 100.394 10.224C102.954 10.224 105.082 10.8 106.778 11.952C108.506 13.104 109.738 14.72 110.474 16.8L104.714 19.296C104.49 18.336 104.026 17.52 103.322 16.848C102.618 16.176 101.642 15.84 100.394 15.84C98.9543 15.84 97.8663 16.32 97.1303 17.28C96.3943 18.208 96.0263 19.472 96.0263 21.072V25.776C96.0263 27.376 96.3943 28.64 97.1303 29.568C97.8663 30.496 98.9543 30.96 100.394 30.96C101.674 30.96 102.682 30.624 103.418 29.952C104.186 29.248 104.746 28.336 105.098 27.216L110.618 29.616C109.786 32.016 108.49 33.776 106.73 34.896C105.002 36.016 102.89 36.576 100.394 36.576ZM118.567 8.112C117.127 8.112 116.071 7.792 115.399 7.152C114.759 6.48 114.439 5.632 114.439 4.608V3.552C114.439 2.528 114.759 1.696 115.399 1.056C116.071 0.383999 117.127 0.0479994 118.567 0.0479994C120.007 0.0479994 121.047 0.383999 121.687 1.056C122.359 1.696 122.695 2.528 122.695 3.552V4.608C122.695 5.632 122.359 6.48 121.687 7.152C121.047 7.792 120.007 8.112 118.567 8.112ZM115.015 10.8H122.119V36H115.015V10.8ZM161.117 36L158.717 28.032H147.533L145.133 36H137.741L148.781 2.496H157.805L168.701 36H161.117ZM153.197 9.12H152.957L149.261 21.84H156.941L153.197 9.12ZM172.953 36V10.8H180.057V16.272H180.297C180.425 15.568 180.649 14.896 180.969 14.256C181.289 13.584 181.705 12.992 182.217 12.48C182.761 11.968 183.401 11.568 184.137 11.28C184.873 10.96 185.737 10.8 186.729 10.8H187.977V17.424H186.201C184.121 17.424 182.569 17.696 181.545 18.24C180.553 18.784 180.057 19.792 180.057 21.264V36H172.953ZM215.031 37.824C215.031 39.168 214.791 40.352 214.311 41.376C213.863 42.4 213.111 43.264 212.055 43.968C210.999 44.704 209.591 45.248 207.831 45.6C206.103 45.984 203.959 46.176 201.399 46.176C199.223 46.176 197.367 46.032 195.831 45.744C194.327 45.488 193.095 45.104 192.135 44.592C191.207 44.112 190.519 43.504 190.071 42.768C189.655 42.064 189.447 41.248 189.447 40.32C189.447 38.912 189.863 37.808 190.695 37.008C191.527 36.208 192.679 35.712 194.151 35.52V34.992C192.935 34.768 192.023 34.256 191.415 33.456C190.807 32.624 190.503 31.664 190.503 30.576C190.503 29.904 190.631 29.328 190.887 28.848C191.175 28.336 191.527 27.904 191.943 27.552C192.391 27.168 192.903 26.864 193.479 26.64C194.055 26.416 194.631 26.24 195.207 26.112V25.92C193.671 25.216 192.535 24.256 191.799 23.04C191.063 21.792 190.695 20.352 190.695 18.72C190.695 16.16 191.575 14.112 193.335 12.576C195.127 11.008 197.847 10.224 201.495 10.224C203.159 10.224 204.583 10.384 205.767 10.704V9.744C205.767 8.4 206.087 7.44 206.727 6.864C207.399 6.256 208.343 5.952 209.559 5.952H213.543V11.232H207.975V11.52C209.447 12.224 210.535 13.2 211.239 14.448C211.943 15.664 212.295 17.088 212.295 18.72C212.295 21.248 211.399 23.28 209.607 24.816C207.847 26.32 205.143 27.072 201.495 27.072C199.863 27.072 198.375 26.896 197.031 26.544C196.295 27.024 195.927 27.696 195.927 28.56C195.927 29.168 196.151 29.648 196.599 30C197.079 30.32 197.863 30.48 198.951 30.48H206.247C209.319 30.48 211.543 31.12 212.919 32.4C214.327 33.68 215.031 35.488 215.031 37.824ZM208.359 38.784C208.359 38.048 208.071 37.488 207.495 37.104C206.919 36.72 205.911 36.528 204.471 36.528H195.831C195.511 36.848 195.271 37.2 195.111 37.584C194.983 38 194.919 38.4 194.919 38.784C194.919 39.712 195.319 40.384 196.119 40.8C196.919 41.248 198.279 41.472 200.199 41.472H203.079C204.999 41.472 206.359 41.248 207.159 40.8C207.959 40.384 208.359 39.712 208.359 38.784ZM201.495 22.416C202.903 22.416 203.943 22.128 204.615 21.552C205.319 20.944 205.671 20.08 205.671 18.96V18.384C205.671 17.264 205.319 16.416 204.615 15.84C203.943 15.232 202.903 14.928 201.495 14.928C200.087 14.928 199.031 15.232 198.327 15.84C197.655 16.416 197.319 17.264 197.319 18.384V18.96C197.319 20.08 197.655 20.944 198.327 21.552C199.031 22.128 200.087 22.416 201.495 22.416ZM228.418 36.576C226.498 36.576 224.786 36.272 223.282 35.664C221.778 35.024 220.498 34.144 219.442 33.024C218.418 31.872 217.634 30.48 217.09 28.848C216.578 27.216 216.322 25.392 216.322 23.376C216.322 21.392 216.578 19.6 217.09 18C217.602 16.368 218.354 14.976 219.346 13.824C220.37 12.672 221.618 11.792 223.09 11.184C224.562 10.544 226.242 10.224 228.13 10.224C230.21 10.224 231.986 10.576 233.458 11.28C234.962 11.984 236.178 12.928 237.106 14.112C238.066 15.296 238.754 16.672 239.17 18.24C239.618 19.776 239.842 21.392 239.842 23.088V25.2H223.666V25.584C223.666 27.248 224.114 28.576 225.01 29.568C225.906 30.528 227.314 31.008 229.234 31.008C230.706 31.008 231.906 30.72 232.834 30.144C233.762 29.536 234.626 28.816 235.426 27.984L238.978 32.4C237.858 33.712 236.386 34.736 234.562 35.472C232.77 36.208 230.722 36.576 228.418 36.576ZM228.274 15.456C226.834 15.456 225.698 15.936 224.866 16.896C224.066 17.824 223.666 19.072 223.666 20.64V21.024H232.498V20.592C232.498 19.056 232.146 17.824 231.442 16.896C230.77 15.936 229.714 15.456 228.274 15.456ZM244.859 36V10.8H251.963V15.072H252.251C252.699 13.76 253.483 12.624 254.603 11.664C255.723 10.704 257.275 10.224 259.259 10.224C261.851 10.224 263.803 11.088 265.115 12.816C266.459 14.544 267.131 17.008 267.131 20.208V36H260.027V20.784C260.027 19.152 259.771 17.952 259.259 17.184C258.747 16.384 257.835 15.984 256.523 15.984C255.947 15.984 255.387 16.064 254.843 16.224C254.299 16.352 253.803 16.576 253.355 16.896C252.939 17.216 252.603 17.616 252.347 18.096C252.091 18.544 251.963 19.072 251.963 19.68V36H244.859ZM282.285 36C279.821 36 277.949 35.376 276.669 34.128C275.421 32.88 274.797 31.056 274.797 28.656V16.32H271.245V10.8H273.021C273.981 10.8 274.637 10.576 274.989 10.128C275.341 9.648 275.517 8.976 275.517 8.112V3.984H281.901V10.8H286.893V16.32H281.901V30.48H286.509V36H282.285ZM295.38 8.112C293.94 8.112 292.884 7.792 292.212 7.152C291.572 6.48 291.252 5.632 291.252 4.608V3.552C291.252 2.528 291.572 1.696 292.212 1.056C292.884 0.383999 293.94 0.0479994 295.38 0.0479994C296.82 0.0479994 297.86 0.383999 298.5 1.056C299.172 1.696 299.508 2.528 299.508 3.552V4.608C299.508 5.632 299.172 6.48 298.5 7.152C297.86 7.792 296.82 8.112 295.38 8.112ZM291.828 10.8H298.932V36H291.828V10.8ZM305.562 36V10.8H312.666V15.072H312.954C313.402 13.76 314.186 12.624 315.306 11.664C316.426 10.704 317.978 10.224 319.962 10.224C322.554 10.224 324.506 11.088 325.818 12.816C327.162 14.544 327.834 17.008 327.834 20.208V36H320.73V20.784C320.73 19.152 320.474 17.952 319.962 17.184C319.45 16.384 318.538 15.984 317.226 15.984C316.65 15.984 316.09 16.064 315.546 16.224C315.002 16.352 314.506 16.576 314.058 16.896C313.642 17.216 313.306 17.616 313.05 18.096C312.794 18.544 312.666 19.072 312.666 19.68V36H305.562ZM352.78 36C351.5 36 350.428 35.6 349.564 34.8C348.732 34 348.204 32.928 347.98 31.584H347.692C347.308 33.216 346.46 34.464 345.148 35.328C343.836 36.16 342.22 36.576 340.3 36.576C337.772 36.576 335.836 35.904 334.492 34.56C333.148 33.216 332.476 31.44 332.476 29.232C332.476 26.576 333.436 24.608 335.356 23.328C337.308 22.016 339.948 21.36 343.276 21.36H347.26V19.776C347.26 18.56 346.94 17.6 346.3 16.896C345.66 16.16 344.588 15.792 343.084 15.792C341.676 15.792 340.556 16.096 339.724 16.704C338.892 17.312 338.204 18 337.66 18.768L333.436 15.024C334.46 13.52 335.74 12.352 337.276 11.52C338.844 10.656 340.956 10.224 343.612 10.224C347.196 10.224 349.884 11.008 351.676 12.576C353.468 14.144 354.364 16.432 354.364 19.44V30.48H356.716V36H352.78ZM342.94 31.632C344.124 31.632 345.132 31.376 345.964 30.864C346.828 30.352 347.26 29.52 347.26 28.368V25.392H343.804C341.02 25.392 339.628 26.336 339.628 28.224V28.944C339.628 29.872 339.916 30.56 340.492 31.008C341.068 31.424 341.884 31.632 342.94 31.632Z" fill="#31355B"/>
</svg>
