<svg width="126" height="78" viewBox="0 0 126 78" fill="none" xmlns="http://www.w3.org/2000/svg">
<path d="M3.69589 2.49585H16.3199C18.5279 2.49585 20.5439 2.84785 22.3679 3.55185C24.1919 4.25585 25.7439 5.31185 27.0239 6.71985C28.3039 8.09585 29.2959 9.83985 29.9999 11.9518C30.7039 14.0319 31.0559 16.4639 31.0559 19.2479C31.0559 22.0319 30.7039 24.4799 29.9999 26.5919C29.2959 28.6719 28.3039 30.4159 27.0239 31.8239C25.7439 33.1999 24.1919 34.2399 22.3679 34.9439C20.5439 35.6479 18.5279 35.9999 16.3199 35.9999H3.69589V2.49585ZM16.3199 29.5199C18.4959 29.5199 20.2079 28.9119 21.4559 27.6959C22.7039 26.4799 23.3279 24.5279 23.3279 21.8399V16.6559C23.3279 13.9679 22.7039 12.0159 21.4559 10.7999C20.2079 9.58385 18.4959 8.97585 16.3199 8.97585H10.9919V29.5199H16.3199Z" fill="#31355B"/>
<path d="M47.2926 36.5759C45.3726 36.5759 43.6606 36.2719 42.1566 35.6639C40.6526 35.0239 39.3726 34.1439 38.3166 33.0239C37.2926 31.8719 36.5086 30.4799 35.9646 28.8479C35.4526 27.2159 35.1966 25.3919 35.1966 23.3759C35.1966 21.3919 35.4526 19.5999 35.9646 17.9999C36.4766 16.3679 37.2286 14.9759 38.2206 13.8239C39.2446 12.6719 40.4926 11.7919 41.9646 11.1839C43.4366 10.5439 45.1166 10.2239 47.0046 10.2239C49.0846 10.2239 50.8606 10.5759 52.3326 11.2799C53.8366 11.9839 55.0526 12.9279 55.9806 14.1119C56.9406 15.2959 57.6286 16.6719 58.0446 18.2399C58.4926 19.7759 58.7166 21.3919 58.7166 23.0879V25.1999H42.5406V25.5839C42.5406 27.2479 42.9886 28.5759 43.8846 29.5679C44.7806 30.5279 46.1886 31.0079 48.1086 31.0079C49.5806 31.0079 50.7806 30.7199 51.7086 30.1439C52.6366 29.5359 53.5006 28.8159 54.3006 27.9839L57.8526 32.3999C56.7326 33.7119 55.2606 34.7359 53.4366 35.4719C51.6446 36.2079 49.5966 36.5759 47.2926 36.5759ZM47.1486 15.4559C45.7086 15.4559 44.5726 15.9359 43.7406 16.8959C42.9406 17.8239 42.5406 19.0719 42.5406 20.6399V21.0239H51.3726V20.5919C51.3726 19.0559 51.0206 17.8239 50.3166 16.8959C49.6446 15.9359 48.5886 15.4559 47.1486 15.4559Z" fill="#31355B"/>
<path d="M74.497 36.5759C71.553 36.5759 69.057 36.0799 67.009 35.0879C64.961 34.0639 63.217 32.7519 61.777 31.1519L66.577 26.3039C68.849 28.8639 71.649 30.1439 74.977 30.1439C76.769 30.1439 78.097 29.7759 78.961 29.0399C79.825 28.3039 80.257 27.3279 80.257 26.1119C80.257 25.1839 80.001 24.4159 79.489 23.8079C78.977 23.1679 77.937 22.7359 76.369 22.5119L73.057 22.0799C69.505 21.6319 66.897 20.5599 65.233 18.8639C63.601 17.1679 62.785 14.9119 62.785 12.0959C62.785 10.5919 63.073 9.21585 63.649 7.96785C64.225 6.71985 65.041 5.64785 66.097 4.75185C67.185 3.85585 68.497 3.16785 70.033 2.68785C71.601 2.17585 73.377 1.91985 75.361 1.91985C77.889 1.91985 80.113 2.31985 82.033 3.11985C83.953 3.91985 85.601 5.08785 86.977 6.62385L82.129 11.5198C81.329 10.5919 80.353 9.83985 79.201 9.26385C78.081 8.65585 76.657 8.35185 74.929 8.35185C73.297 8.35185 72.081 8.63985 71.281 9.21585C70.481 9.79185 70.081 10.5919 70.081 11.6159C70.081 12.7679 70.385 13.5999 70.993 14.1119C71.633 14.6239 72.657 14.9919 74.065 15.2159L77.377 15.7439C80.833 16.2879 83.393 17.3598 85.057 18.9599C86.721 20.5279 87.553 22.7679 87.553 25.6799C87.553 27.2799 87.265 28.7519 86.689 30.0959C86.113 31.4399 85.265 32.5919 84.145 33.5519C83.057 34.5119 81.697 35.2639 80.065 35.8079C78.433 36.3199 76.577 36.5759 74.497 36.5759Z" fill="#31355B"/>
<path d="M103.394 36.5759C101.506 36.5759 99.8261 36.2719 98.3541 35.6639C96.8821 35.0239 95.6501 34.1439 94.6581 33.0239C93.6661 31.8719 92.9141 30.4799 92.4021 28.8479C91.8901 27.2159 91.6341 25.3919 91.6341 23.3759C91.6341 21.3599 91.8901 19.5519 92.4021 17.9519C92.9141 16.3199 93.6661 14.9279 94.6581 13.7759C95.6501 12.6239 96.8821 11.7439 98.3541 11.1359C99.8261 10.5279 101.506 10.2239 103.394 10.2239C105.954 10.2239 108.082 10.7999 109.778 11.9518C111.506 13.1039 112.738 14.7199 113.474 16.7999L107.714 19.2959C107.49 18.3359 107.026 17.5199 106.322 16.8479C105.618 16.1759 104.642 15.8399 103.394 15.8399C101.954 15.8399 100.866 16.3199 100.13 17.2799C99.3941 18.2079 99.0261 19.4719 99.0261 21.0719V25.7759C99.0261 27.3759 99.3941 28.6399 100.13 29.5679C100.866 30.4959 101.954 30.9599 103.394 30.9599C104.674 30.9599 105.682 30.6239 106.418 29.9519C107.186 29.2479 107.746 28.3359 108.098 27.2159L113.618 29.6159C112.786 32.0159 111.49 33.7759 109.73 34.8959C108.002 36.0159 105.89 36.5759 103.394 36.5759Z" fill="#31355B"/>
<path d="M121.567 8.11185C120.127 8.11185 119.071 7.79185 118.399 7.15185C117.759 6.47985 117.439 5.63185 117.439 4.60785V3.55185C117.439 2.52785 117.759 1.69585 118.399 1.05585C119.071 0.383851 120.127 0.0478516 121.567 0.0478516C123.007 0.0478516 124.047 0.383851 124.687 1.05585C125.359 1.69585 125.695 2.52785 125.695 3.55185V4.60785C125.695 5.63185 125.359 6.47985 124.687 7.15185C124.047 7.79185 123.007 8.11185 121.567 8.11185ZM118.015 10.7999H125.119V35.9999H118.015V10.7999Z" fill="#31355B"/>
<path d="M14.3919 71.9999L12.8239 67.0159H5.87989L4.33989 71.9999H0.587891L7.13989 52.4559H11.7319L18.2279 71.9999H14.3919ZM9.40789 55.8159H9.26789L6.77589 63.8519H11.9279L9.40789 55.8159Z" fill="#7E8C9D"/>
<path d="M20.8844 71.9999V57.3839H24.4684V60.4079H24.6084C24.7017 60.0159 24.8417 59.6425 25.0284 59.2879C25.2337 58.9145 25.4951 58.5878 25.8124 58.3078C26.1297 58.0279 26.5031 57.8039 26.9324 57.6359C27.3804 57.4679 27.8937 57.3839 28.4724 57.3839H29.2564V60.7719H28.1364C26.9231 60.7719 26.0084 60.9492 25.3924 61.3039C24.7764 61.6585 24.4684 62.2372 24.4684 63.0399V71.9999H20.8844Z" fill="#7E8C9D"/>
<path d="M44.5997 73.2318C44.5997 73.9972 44.4597 74.6692 44.1797 75.2478C43.9184 75.8452 43.4797 76.3398 42.8637 76.7318C42.2477 77.1238 41.4544 77.4225 40.4837 77.6279C39.5131 77.8332 38.3277 77.9359 36.9277 77.9359C35.6957 77.9359 34.6504 77.8519 33.7917 77.6839C32.9331 77.5345 32.2237 77.3105 31.6637 77.0119C31.1224 76.7319 30.7304 76.3772 30.4877 75.9479C30.2451 75.5185 30.1237 75.0332 30.1237 74.4919C30.1237 73.6705 30.3477 73.0265 30.7957 72.5599C31.2624 72.1119 31.9064 71.8225 32.7277 71.6918V71.3839C32.1304 71.2345 31.6637 70.9452 31.3277 70.5159C31.0104 70.0679 30.8517 69.5452 30.8517 68.9479C30.8517 68.5745 30.9264 68.2478 31.0757 67.9678C31.2251 67.6692 31.4211 67.4172 31.6637 67.2119C31.9251 67.0065 32.2144 66.8385 32.5317 66.7079C32.8491 66.5585 33.1851 66.4465 33.5397 66.3718V66.2598C32.6437 65.8492 31.9717 65.2798 31.5237 64.5518C31.0944 63.8238 30.8797 62.9745 30.8797 62.0039C30.8797 60.5105 31.3931 59.3159 32.4197 58.4199C33.4464 57.5052 34.9491 57.0479 36.9277 57.0479C37.3757 57.0479 37.8144 57.0759 38.2437 57.1319C38.6917 57.1879 39.1024 57.2812 39.4757 57.4118V56.9359C39.4757 55.5172 40.1664 54.8078 41.5477 54.8078H43.8157V57.5518H40.7077V57.9439C41.4731 58.3732 42.0424 58.9332 42.4157 59.6239C42.7891 60.3145 42.9757 61.1079 42.9757 62.0039C42.9757 63.4785 42.4624 64.6639 41.4357 65.5599C40.4277 66.4559 38.9251 66.9039 36.9277 66.9039C36.0691 66.9039 35.3224 66.8199 34.6877 66.6519C34.4077 66.7825 34.1651 66.9599 33.9597 67.1839C33.7544 67.3892 33.6517 67.6505 33.6517 67.9678C33.6517 68.6958 34.2864 69.0599 35.5557 69.0599H39.4757C41.2677 69.0599 42.5651 69.4332 43.3677 70.1799C44.1891 70.9079 44.5997 71.9252 44.5997 73.2318ZM41.2397 73.6519C41.2397 73.1852 41.0531 72.8212 40.6797 72.5599C40.3064 72.2985 39.6624 72.1679 38.7477 72.1679H33.7637C33.2597 72.5412 33.0077 73.0452 33.0077 73.6799C33.0077 74.2399 33.2411 74.6785 33.7077 74.9958C34.1744 75.3132 34.9677 75.4719 36.0877 75.4719H37.8797C39.0557 75.4719 39.9051 75.3225 40.4277 75.0238C40.9691 74.7252 41.2397 74.2679 41.2397 73.6519ZM36.9277 64.4678C38.6824 64.4678 39.5597 63.7212 39.5597 62.2279V61.7519C39.5597 60.2585 38.6824 59.5119 36.9277 59.5119C35.1731 59.5119 34.2957 60.2585 34.2957 61.7519V62.2279C34.2957 63.7212 35.1731 64.4678 36.9277 64.4678Z" fill="#7E8C9D"/>
<path d="M52.4135 72.3359C51.3308 72.3359 50.3602 72.1585 49.5015 71.8039C48.6615 71.4305 47.9428 70.9172 47.3455 70.2639C46.7668 69.5919 46.3188 68.7892 46.0015 67.8559C45.6842 66.9038 45.5255 65.8398 45.5255 64.6638C45.5255 63.5065 45.6748 62.4612 45.9735 61.5279C46.2908 60.5945 46.7388 59.8012 47.3175 59.1479C47.8962 58.4758 48.6055 57.9625 49.4455 57.6079C50.2855 57.2345 51.2375 57.0479 52.3015 57.0479C53.4401 57.0479 54.4295 57.2439 55.2695 57.6359C56.1095 58.0279 56.8002 58.5598 57.3415 59.2318C57.8828 59.9038 58.2842 60.6879 58.5455 61.5839C58.8255 62.4612 58.9655 63.4039 58.9655 64.4118V65.5879H49.2495V65.9519C49.2495 67.0159 49.5482 67.8745 50.1455 68.5279C50.7428 69.1625 51.6295 69.4799 52.8055 69.4799C53.7015 69.4799 54.4295 69.2932 54.9895 68.9199C55.5681 68.5465 56.0815 68.0705 56.5295 67.4919L58.4615 69.6479C57.8642 70.4879 57.0428 71.1505 55.9975 71.6358C54.9708 72.1025 53.7762 72.3359 52.4135 72.3359ZM52.3575 59.7359C51.4055 59.7359 50.6495 60.0532 50.0895 60.6879C49.5295 61.3225 49.2495 62.1439 49.2495 63.1519V63.3759H55.2415V63.1239C55.2415 62.1159 54.9895 61.3039 54.4855 60.6879C54.0002 60.0532 53.2908 59.7359 52.3575 59.7359Z" fill="#7E8C9D"/>
<path d="M62.1188 71.9999V57.3839H65.7028V59.8199H65.8428C66.1414 59.0359 66.6081 58.3825 67.2428 57.8599C67.8961 57.3185 68.7921 57.0479 69.9308 57.0479C71.4428 57.0479 72.6001 57.5425 73.4028 58.5319C74.2054 59.5212 74.6068 60.9305 74.6068 62.7599V71.9999H71.0228V63.1239C71.0228 62.0785 70.8361 61.2945 70.4628 60.7719C70.0894 60.2492 69.4734 59.9879 68.6148 59.9879C68.2414 59.9879 67.8774 60.0439 67.5228 60.1559C67.1868 60.2492 66.8788 60.3985 66.5988 60.6039C66.3374 60.7905 66.1228 61.0332 65.9548 61.3319C65.7868 61.6119 65.7028 61.9479 65.7028 62.3399V71.9999H62.1188Z" fill="#7E8C9D"/>
<path d="M83.1437 71.9999C81.9117 71.9999 80.969 71.6825 80.3157 71.0479C79.681 70.3945 79.3637 69.4705 79.3637 68.2758V60.2399H77.2077V57.3839H78.3277C78.869 57.3839 79.233 57.2625 79.4197 57.0199C79.625 56.7585 79.7277 56.3759 79.7277 55.8719V53.3799H82.9477V57.3839H85.9437V60.2399H82.9477V69.1439H85.7197V71.9999H83.1437Z" fill="#7E8C9D"/>
<path d="M90.8444 55.2559C90.0977 55.2559 89.5564 55.0879 89.2204 54.7519C88.903 54.4159 88.7444 53.9865 88.7444 53.4639V52.9039C88.7444 52.3812 88.903 51.9519 89.2204 51.6159C89.5564 51.2799 90.0977 51.1119 90.8444 51.1119C91.5724 51.1119 92.1044 51.2799 92.4404 51.6159C92.7764 51.9519 92.9444 52.3812 92.9444 52.9039V53.4639C92.9444 53.9865 92.7764 54.4159 92.4404 54.7519C92.1044 55.0879 91.5724 55.2559 90.8444 55.2559ZM89.0524 57.3839H92.6364V71.9999H89.0524V57.3839Z" fill="#7E8C9D"/>
<path d="M96.7906 71.9999V57.3839H100.375V59.8199H100.515C100.813 59.0359 101.28 58.3825 101.915 57.8599C102.568 57.3185 103.464 57.0479 104.603 57.0479C106.115 57.0479 107.272 57.5425 108.075 58.5319C108.877 59.5212 109.279 60.9305 109.279 62.7599V71.9999H105.695V63.1239C105.695 62.0785 105.508 61.2945 105.135 60.7719C104.761 60.2492 104.145 59.9879 103.287 59.9879C102.913 59.9879 102.549 60.0439 102.195 60.1559C101.859 60.2492 101.551 60.3985 101.271 60.6039C101.009 60.7905 100.795 61.0332 100.627 61.3319C100.459 61.6119 100.375 61.9479 100.375 62.3399V71.9999H96.7906Z" fill="#7E8C9D"/>
<path d="M124.004 71.9999C123.22 71.9999 122.594 71.7759 122.128 71.3279C121.68 70.8612 121.4 70.2452 121.288 69.4799H121.12C120.877 70.4319 120.382 71.1505 119.636 71.6358C118.889 72.1025 117.965 72.3359 116.864 72.3359C115.37 72.3359 114.222 71.9439 113.42 71.1599C112.617 70.3759 112.216 69.3305 112.216 68.0238C112.216 66.5118 112.757 65.3918 113.84 64.6638C114.922 63.9172 116.462 63.5438 118.46 63.5438H120.952V62.4799C120.952 61.6585 120.737 61.0239 120.308 60.5759C119.878 60.1279 119.188 59.9039 118.236 59.9039C117.396 59.9039 116.714 60.0905 116.192 60.4639C115.688 60.8185 115.258 61.2479 114.904 61.7519L112.776 59.8479C113.317 59.0079 114.036 58.3359 114.932 57.8319C115.828 57.3092 117.013 57.0479 118.488 57.0479C120.466 57.0479 121.969 57.4958 122.996 58.3918C124.022 59.2878 124.536 60.5759 124.536 62.2559V69.1439H125.992V71.9999H124.004ZM118.068 69.7318C118.87 69.7318 119.552 69.5545 120.112 69.1999C120.672 68.8452 120.952 68.3225 120.952 67.6319V65.6999H118.656C116.789 65.6999 115.856 66.2972 115.856 67.4919V67.9678C115.856 68.5652 116.042 69.0132 116.416 69.3119C116.808 69.5919 117.358 69.7318 118.068 69.7318Z" fill="#7E8C9D"/>
</svg>
