<svg width="753" height="173" viewBox="0 0 753 173" fill="none" xmlns="http://www.w3.org/2000/svg">
<path d="M48.4499 2.14844C73.5403 2.14844 93.9302 26.2621 93.9302 55.9129C93.9302 85.5637 73.5482 109.677 48.4499 109.677H0V2.14844H48.4499ZM48.4499 91.6963C61.3524 91.6963 71.6982 75.7158 71.6982 55.901C71.6982 36.0861 61.3524 20.1057 48.4499 20.1057H20.6916V91.6844H48.4499V91.6963Z" fill="white"/>
<path d="M184.255 2.1486V20.1177H124.539V47.0059H178.308V64.8202H124.539V91.6964H184.255V109.666H103.855V2.13672H184.255V2.1486Z" fill="white"/>
<path d="M193.164 78.7993H216.309C216.309 86.3251 226.862 92.4697 238.327 92.4697C249.792 92.4697 261.17 86.3251 261.17 78.7993C261.17 54.3761 196.642 69.5826 196.642 33.0252C196.642 14.7465 214.467 0.00439453 238.327 0.00439453C262.187 0.00439453 278.781 14.7465 278.781 33.0252H257.065C257.065 25.4993 249.483 17.8187 238.121 17.8187C226.758 17.8187 218.35 25.4993 218.35 33.0252C218.35 55.1502 283.593 37.3239 283.593 78.6445C283.593 96.9233 262.187 111.82 238.319 111.82C214.451 111.82 193.148 97.078 193.148 78.7993H193.164Z" fill="white"/>
<path d="M291.692 56.0558C291.692 25.1785 315.043 -0.00683594 344.032 -0.00683594C370.147 -0.00683594 391.656 20.2724 395.555 46.6962H373.021C369.536 30.418 357.761 18.2719 344.032 18.2719C327.541 18.2719 314.122 35.1693 314.122 55.901C314.122 76.6328 327.541 93.5302 344.032 93.5302C357.761 93.5302 369.536 81.3959 373.021 64.963H395.555C391.664 91.5415 370.155 111.809 344.032 111.809C315.043 111.809 291.692 86.9212 291.692 56.0439V56.0558Z" fill="white"/>
<path d="M407.727 2.14844H428.419V109.677H407.727V2.14844Z" fill="white"/>
<path d="M522.134 2.14844C547.233 2.14844 567.615 26.2621 567.615 55.9129C567.615 85.5637 547.233 109.677 522.134 109.677H473.685V2.14844H522.134ZM522.134 91.6963C535.037 91.6963 545.383 75.7158 545.383 55.901C545.383 36.0861 535.037 20.1057 522.134 20.1057H494.376V91.6844H522.134V91.6963Z" fill="white"/>
<path d="M609.601 2.14844H631.111L673.002 109.677H651.39L644.426 91.7082H596.286L589.323 109.677H567.71L609.601 2.14844ZM637.455 73.882L620.352 29.7987L603.249 73.882H637.463H637.455Z" fill="white"/>
<path d="M681.395 2.14844L704.747 45.6244L728.098 2.14844H752.268L715.085 68.964V109.665H694.393V68.964L657.21 2.14844H681.379H681.395Z" fill="white"/>
<path d="M256.008 147.5H271.102C273.071 147.5 274.683 150.31 274.683 153.287C274.683 155.883 273.674 157.848 271.991 158.694C274.333 158.694 276.295 161.992 276.295 165.541C276.295 169.089 274.373 172.031 272.031 172.031H256V147.488L256.008 147.5ZM259.359 151.001V156.967H269.284C270.363 156.967 271.253 155.633 271.253 153.978C271.253 152.323 270.363 150.989 269.284 150.989H259.359V151.001ZM259.359 160.444V168.553H269.959C271.435 168.553 272.626 166.732 272.626 164.481C272.626 162.23 271.435 160.444 269.959 160.444H259.359Z" fill="white"/>
<path d="M278.74 147.5H282.464V159.896C282.464 165.826 285.878 168.672 289.324 168.672C292.77 168.672 296.184 165.826 296.184 159.896V147.5H299.908V159.896C299.908 168.351 294.247 172.531 289.332 172.531C284.417 172.531 278.748 168.387 278.748 159.932V147.5H278.74Z" fill="white"/>
<path d="M303.513 147.5H320.695V151.013H306.863V158.039H319.313V161.516H306.863V168.565H320.695V172.042H303.513V147.5Z" fill="white"/>
<path d="M324.205 172.031V147.488H329.755L341.18 168.661V147.488H344.507V172.031H338.981L327.555 150.858V172.031H324.213H324.205Z" fill="white"/>
<path d="M347.048 159.813C347.048 151.323 353.559 147 358.45 147C363.341 147 369.852 151.251 369.852 159.777C369.852 168.303 363.341 172.519 358.45 172.519C353.559 172.519 347.048 168.303 347.048 159.813ZM350.819 159.777C350.819 165.815 355.107 168.97 358.45 168.97C361.792 168.97 366.104 165.815 366.104 159.777C366.104 153.74 361.8 150.584 358.45 150.584C355.099 150.584 350.819 153.704 350.819 159.777Z" fill="white"/>
<path d="M375.846 165.505C376.243 168.029 380.126 168.696 381.65 168.696C382.913 168.696 387.645 167.994 387.645 165.112C387.645 158.967 372.71 162.754 372.71 154.407C372.71 148.786 378.681 147 381.65 147C384.62 147 390.027 148.619 390.289 154.026L386.684 154.061C386.335 151.251 383.103 150.477 381.603 150.477C380.102 150.477 376.291 151.394 376.291 154.407C376.291 159.884 391.409 155.812 391.409 165.112C391.409 170.554 384.993 172.519 381.65 172.519C378.308 172.519 372.242 170.661 371.916 165.493H375.846V165.505Z" fill="white"/>
<path d="M399.817 172.031L409.226 147.488H413.109L422.518 172.031H418.913L417.301 167.815H405.034L403.422 172.031H399.817ZM415.967 164.35L411.172 151.858L406.376 164.35H415.975H415.967Z" fill="white"/>
<path d="M425.384 147.5H428.727V172.042H425.384V147.5Z" fill="white"/>
<path d="M433.245 172.031V147.488H445.274C448.807 147.488 452.293 151.239 452.293 156.86C452.293 160.266 450.935 163.219 448.99 164.826L448.76 165.005L451.427 172.031H447.823V171.995L445.623 166.243H436.588V172.031H433.237H433.245ZM443.9 162.766C446.004 162.766 448.632 160.694 448.632 156.872C448.632 153.049 446.012 151.013 443.9 151.013H436.595V162.766H443.9Z" fill="white"/>
<path d="M456.302 147.5H473.484V151.013H459.653V158.039H472.103V161.516H459.653V168.565H473.484V172.042H456.302V147.5Z" fill="white"/>
<path d="M480.186 165.505C480.583 168.029 484.465 168.696 485.99 168.696C487.252 168.696 491.985 167.994 491.985 165.112C491.985 158.967 477.049 162.754 477.049 154.407C477.049 148.786 483.02 147 485.99 147C488.959 147 494.367 148.619 494.629 154.026L491.024 154.061C490.674 151.251 487.443 150.477 485.942 150.477C484.442 150.477 480.63 151.394 480.63 154.407C480.63 159.884 495.748 155.812 495.748 165.112C495.748 170.554 489.333 172.519 485.99 172.519C482.647 172.519 476.581 170.661 476.255 165.493H480.186V165.505Z" fill="white"/>
</svg>
